# xmcd
#
# Track frame offsets: 
#        183
#        12120
#        25713
#        36460
#        48413
#        61110
#        74150
#        88203
#        99400
#        112578
#        123743
#        135460
#        147760
#        159085
#        171080
#        181908
#        192573
#        206830
#        219335
#        232483
#        245288
#        257388
#        268725
#        280448
#        293255
#        311760
#
# Disc length: 4332 seconds
#
# Revision: 1
# Processed by: cddbd v1.5.2PL0 Copyright (c) Steve Scherf et al.
# Submitted via: ExactAudioCopyFreeDBPlugin 1.0
#
DISCID=7c10ea1a
DTITLE=Walker, T-Bone - The Talkin' Guitar
DYEAR=1990
DGENRE=Blues
TTITLE0=T-Bone Walker - Bobby Sox Blues
TTITLE1=T-Bone Walker - Call It Stormy Monday
TTITLE2=T-Bone Walker - Lonesome Women Blues
TTITLE3=T-Bone Walker - Too Much Trouble Blues
TTITLE4=T-Bone Walker - Hypin' Women Blues
TTITLE5=T-Bone Walker - Vacation Blues
TTITLE6=T-Bone Walker - So Blue Blues
TTITLE7=T-Bone Walker - Strollin' With Bones
TTITLE8=T-Bone Walker - You Don't Love Me
TTITLE9=T-Bone Walker - Travelin' Blues
TTITLE10=T-Bone Walker - Evil Hearted Woman
TTITLE11=T-Bone Walker - Glamour Girl
TTITLE12=T-Bone Walker - The Hustle
TTITLE13=T-Bone Walker - Alimony Blues
TTITLE14=T-Bone Walker - Say! Pretty Baby
TTITLE15=T-Bone Walker - I'm About To Lose My Mind
TTITLE16=T-Bone Walker - Cold Cold Feeling
TTITLE17=T-Bone Walker - Blues Is A Woman
TTITLE18=T-Bone Walker - I Got The Blues
TTITLE19=T-Bone Walker - Blue Mood
TTITLE20=T-Bone Walker - Railroad Station Blues
TTITLE21=T-Bone Walker - Play On Little Girl
TTITLE22=T-Bone Walker - T-Bone Blues Special
TTITLE23=T-Bone Walker - Two Bones And A Pick
TTITLE24=T-Bone Walker - Mean Old World
TTITLE25=T-Bone Walker - Bonus Track
EXTD=
EXTT0=
EXTT1=
EXTT2=
EXTT3=
EXTT4=
EXTT5=
EXTT6=
EXTT7=
EXTT8=
EXTT9=
EXTT10=
EXTT11=
EXTT12=
EXTT13=
EXTT14=
EXTT15=
EXTT16=
EXTT17=
EXTT18=
EXTT19=
EXTT20=
EXTT21=
EXTT22=
EXTT23=
EXTT24=
EXTT25=
PLAYORDER=
